<svg width="50" height="50" viewBox="0 0 50 50" fill="none" xmlns="http://www.w3.org/2000/svg">
<g clip-path="url(#clip0_31_11)">
<path d="M38.2812 0H11.7188C5.24666 0 0 5.24666 0 11.7188V38.2812C0 44.7533 5.24666 50 11.7188 50H38.2812C44.7533 50 50 44.7533 50 38.2812V11.7188C50 5.24666 44.7533 0 38.2812 0Z" fill="#330000"/>
<path d="M24.1666 29.7525H16.4166L14.8332 34.6484C14.7916 34.8359 14.625 34.9609 14.4375 34.94H10.5207C10.2916 34.94 10.2291 34.815 10.2916 34.565L17 15.2525C17.0625 15.0443 17.125 14.815 17.2082 14.565C17.2916 14.1275 17.3332 13.6693 17.3332 13.2109C17.3125 13.1068 17.3957 13.0025 17.5 12.9818H22.8957C23.0625 12.9818 23.1457 13.0443 23.1666 13.1484L30.7707 34.6068C30.8332 34.8359 30.7707 34.94 30.5625 34.94H26.2082C26.0625 34.9609 25.9166 34.8568 25.875 34.7109L24.1666 29.7525ZM17.625 25.5234H22.9166C22.7916 25.0859 22.625 24.565 22.4375 24.0234C22.25 23.4609 22.0625 22.8568 21.875 22.2318C21.6666 21.5859 21.4791 20.9609 21.2707 20.315C21.0625 19.6693 20.875 19.065 20.7082 18.4609C20.5416 17.8777 20.3957 17.3359 20.25 16.8359H20.2082C20.0207 17.7318 19.7916 18.6277 19.5 19.5234C19.1875 20.5234 18.875 21.565 18.5416 22.6068C18.2726 23.5901 17.9669 24.563 17.625 25.5234ZM35.4166 16.6275C34.7291 16.6484 34.0625 16.3775 33.5625 15.8984C33.0834 15.3775 32.8334 14.69 32.8541 13.9818C32.8334 13.2734 33.1041 12.6068 33.6041 12.1275C34.1041 11.6482 34.7709 11.3984 35.4584 11.3984C36.2709 11.3984 36.8959 11.6484 37.3541 12.1275C37.8159 12.6326 38.0625 13.2978 38.0416 13.9818C38.0625 14.69 37.8125 15.3775 37.3125 15.8984C36.8334 16.3984 36.125 16.6693 35.4166 16.6275ZM33.0834 34.7109V18.6693C33.0834 18.4609 33.1666 18.3775 33.3541 18.3775H37.4791C37.6666 18.3775 37.75 18.4818 37.75 18.6693V34.7109C37.75 34.94 37.6666 35.0443 37.4791 35.0443H33.3959C33.1875 35.0443 33.0834 34.9193 33.0834 34.7109Z" fill="#FF9A00"/>
</g>
<defs>
<clipPath id="clip0_31_11">
<rect width="50" height="50" fill="white"/>
</clipPath>
</defs>
</svg>
