<svg width="50" height="50" viewBox="0 0 50 50" fill="none" xmlns="http://www.w3.org/2000/svg">
<g clip-path="url(#clip0_31_28)">
<path d="M38.2812 0H11.7188C5.24666 0 0 5.24666 0 11.7188V38.2812C0 44.7533 5.24666 50 11.7188 50H38.2812C44.7533 50 50 44.7533 50 38.2812V11.7188C50 5.24666 44.7533 0 38.2812 0Z" fill="#F0DB4F"/>
<path d="M13.1469 41.7835L16.9731 39.4679C17.7114 40.7767 18.3829 41.8841 19.9936 41.8841C21.5375 41.8841 22.511 41.2802 22.511 38.931V22.9548H27.2098V38.9974C27.2098 43.864 24.3571 46.0792 20.195 46.0792C16.4362 46.0792 14.2543 44.1325 13.1467 41.7831M29.762 41.28L33.5877 39.0649C34.595 40.7097 35.904 41.9179 38.2196 41.9179C40.1667 41.9179 41.4081 40.9444 41.4081 39.6019C41.4081 37.9909 40.1327 37.4202 37.9846 36.4808L36.8102 35.9771C33.4202 34.5341 31.1713 32.7216 31.1713 28.8954C31.1713 25.3712 33.8565 22.686 38.052 22.686C41.0391 22.686 43.1872 23.7267 44.7309 26.4452L41.0725 28.7946C40.2668 27.3515 39.3946 26.781 38.052 26.781C36.6758 26.781 35.8032 27.6536 35.8032 28.7946C35.8032 30.2042 36.6758 30.7749 38.6895 31.6478L39.8641 32.1511C43.8581 33.863 46.1069 35.6079 46.1069 39.5347C46.1069 43.764 42.7842 46.0796 38.3204 46.0796C33.9573 46.0796 31.1379 43.9987 29.762 41.28Z" fill="#323330"/>
</g>
<defs>
<clipPath id="clip0_31_28">
<rect width="50" height="50" fill="white"/>
</clipPath>
</defs>
</svg>
