<svg width="50" height="50" viewBox="0 0 50 50" fill="none" xmlns="http://www.w3.org/2000/svg">
<g clip-path="url(#clip0_31_7)">
<path d="M38.2812 0H11.7188C5.24666 0 0 5.24666 0 11.7188V38.2812C0 44.7533 5.24666 50 11.7188 50H38.2812C44.7533 50 50 44.7533 50 38.2812V11.7188C50 5.24666 44.7533 0 38.2812 0Z" fill="#001E36"/>
<path d="M11.25 34.7735V13.336C11.25 13.1901 11.3125 13.1069 11.4584 13.1069C11.8125 13.1069 12.1459 13.1069 12.625 13.086C13.125 13.0651 13.6459 13.0651 14.2084 13.0444C14.7709 13.0235 15.375 13.0235 16.0209 13.0026C16.6666 12.9819 17.2916 12.9819 17.9166 12.9819C19.625 12.9819 21.0416 13.1901 22.2084 13.6276C23.2542 13.9829 24.2078 14.5665 25 15.336C25.6712 16.0097 26.1898 16.8196 26.5209 17.711C26.8334 18.586 27 19.4819 27 20.4194C27 22.2111 26.5833 23.6903 25.75 24.8569C24.9166 26.0235 23.75 26.8985 22.3959 27.3985C20.9791 27.9194 19.4166 28.1069 17.7084 28.1069C17.2084 28.1069 16.875 28.1069 16.6666 28.086C16.4582 28.0651 16.1666 28.0651 15.7709 28.0651V34.7526C15.7916 34.8985 15.6875 35.0235 15.5416 35.0444H11.5C11.3334 35.0444 11.25 34.961 11.25 34.7735ZM15.7916 17.1276V24.1276C16.0834 24.1485 16.3541 24.1694 16.6041 24.1694H17.7084C18.5209 24.1694 19.3334 24.0444 20.1041 23.7944C20.7709 23.6069 21.3541 23.211 21.8125 22.6901C22.25 22.1694 22.4584 21.461 22.4584 20.5444C22.478 19.8934 22.3117 19.2502 21.9791 18.6901C21.625 18.1485 21.125 17.7319 20.5209 17.5026C19.75 17.1901 18.9166 17.0651 18.0625 17.086C17.5209 17.086 17.0416 17.086 16.6459 17.1069C16.2291 17.086 15.9375 17.1069 15.7916 17.1276ZM40 22.8569C39.375 22.5235 38.7084 22.2944 38 22.1485C37.2291 21.9819 36.4584 21.8776 35.6666 21.8776C35.25 21.8569 34.8125 21.9194 34.4166 22.0235C34.1459 22.086 33.9166 22.2319 33.7709 22.4401C33.6666 22.6069 33.6041 22.8151 33.6041 23.0026C33.6041 23.1901 33.6875 23.3776 33.8125 23.5444C34 23.7735 34.25 23.961 34.5209 24.1069C35.0039 24.357 35.4974 24.5864 36 24.7944C37.125 25.1694 38.2084 25.6901 39.2084 26.3151C39.8959 26.7526 40.4584 27.336 40.8541 28.0444C41.1875 28.711 41.3541 29.4401 41.3334 30.1901C41.3541 31.1694 41.0625 32.1485 40.5209 32.961C39.9398 33.7927 39.1289 34.437 38.1875 34.8151C37.1666 35.2526 35.9166 35.4819 34.4166 35.4819C33.4584 35.4819 32.5209 35.3985 31.5834 35.211C30.8486 35.0842 30.134 34.86 29.4584 34.5444C29.3125 34.461 29.2084 34.3151 29.2291 34.1485V30.5235C29.2291 30.461 29.25 30.3776 29.3125 30.336C29.375 30.2944 29.4375 30.3151 29.5 30.3569C30.3125 30.836 31.1666 31.1694 32.0834 31.3776C32.875 31.586 33.7084 31.6901 34.5416 31.6901C35.3334 31.6901 35.8959 31.586 36.2709 31.3985C36.6041 31.2526 36.8334 30.8985 36.8334 30.5235C36.8334 30.2319 36.6666 29.961 36.3334 29.6901C36 29.4194 35.3125 29.1069 34.2916 28.711C33.2444 28.3419 32.25 27.8377 31.3334 27.211C30.6805 26.7458 30.1395 26.1408 29.75 25.4401C29.4166 24.7735 29.25 24.0444 29.2709 23.3151C29.2709 22.4194 29.5209 21.5651 29.9791 20.7944C30.5 19.961 31.2709 19.2944 32.1666 18.8776C33.1459 18.3776 34.375 18.1485 35.8541 18.1485C36.7084 18.1485 37.5834 18.211 38.4375 18.336C39.0625 18.4194 39.6666 18.586 40.2291 18.8151C40.3125 18.836 40.3959 18.9194 40.4375 19.0026C40.4584 19.086 40.4791 19.1694 40.4791 19.2526V22.6485C40.4791 22.7319 40.4375 22.8151 40.375 22.8569C40.1875 22.8985 40.0834 22.8985 40 22.8569Z" fill="#31A8FF"/>
</g>
<defs>
<clipPath id="clip0_31_7">
<rect width="50" height="50" fill="white"/>
</clipPath>
</defs>
</svg>
