<svg width="50" height="50" viewBox="0 0 50 50" fill="none" xmlns="http://www.w3.org/2000/svg">
<g clip-path="url(#clip0_31_32)">
<path d="M38.2812 0H11.7188C5.24666 0 0 5.24666 0 11.7188V38.2812C0 44.7533 5.24666 50 11.7188 50H38.2812C44.7533 50 50 44.7533 50 38.2812V11.7188C50 5.24666 44.7533 0 38.2812 0Z" fill="#242938"/>
<path d="M25.0002 28.7013C27.0127 28.7013 28.6439 27.0699 28.6439 25.0576C28.6439 23.0453 27.0127 21.4138 25.0002 21.4138C22.9877 21.4138 21.3564 23.0453 21.3564 25.0576C21.3564 27.0699 22.9879 28.7013 25.0002 28.7013Z" fill="#00D8FF"/>
<path d="M25.0004 17.6489C29.8926 17.6489 34.4373 18.3509 37.8641 19.5308C41.9928 20.9521 44.5312 23.1065 44.5312 25.0575C44.5312 27.0905 41.841 29.3794 37.4072 30.8483C34.0553 31.9589 29.6443 32.5386 25.0004 32.5386C20.2391 32.5386 15.7303 31.9944 12.3404 30.836C8.05176 29.3702 5.46875 27.0519 5.46875 25.0575C5.46875 23.1224 7.89258 20.9845 11.9633 19.5653C15.4027 18.3661 20.0596 17.6489 24.9996 17.6489H25.0004Z" stroke="#00D8FF" stroke-width="0.556938"/>
<path d="M18.551 21.3746C20.9952 17.1367 23.8735 13.5504 26.6075 11.1715C29.9012 8.30488 33.036 7.18222 34.7258 8.15664C36.487 9.17226 37.1258 12.6465 36.1834 17.2211C35.4715 20.6795 33.7696 24.79 31.4495 28.8131C29.0707 32.9377 26.3471 36.5717 23.6504 38.9287C20.2381 41.9115 16.9391 42.991 15.2116 41.9947C13.5352 41.0287 12.8942 37.8605 13.6985 33.6252C14.378 30.0465 16.0832 25.6541 18.5502 21.3746H18.551Z" stroke="#00D8FF" stroke-width="0.556938"/>
<path d="M18.557 28.8238C16.1061 24.5906 14.4373 20.3051 13.7408 16.7484C12.9024 12.4631 13.4951 9.18671 15.1836 8.20936C16.9432 7.19061 20.2719 8.37226 23.7645 11.4734C26.4051 13.818 29.1166 17.3447 31.4434 21.3639C33.8289 25.4846 35.6168 29.6594 36.3123 33.1726C37.1924 37.6187 36.4801 41.0158 34.7541 42.0148C33.0795 42.9844 30.0149 41.958 26.7471 39.1459C23.9861 36.7701 21.0322 33.0992 18.557 28.8238Z" stroke="#00D8FF" stroke-width="0.556938"/>
</g>
<defs>
<clipPath id="clip0_31_32">
<rect width="50" height="50" fill="white"/>
</clipPath>
</defs>
</svg>
